<svg xmlns="http://www.w3.org/2000/svg" xmlns:xlink="http://www.w3.org/1999/xlink" width="500" zoomAndPan="magnify" viewBox="0 0 375 187.499995" height="250" preserveAspectRatio="xMidYMid meet" version="1.0"><defs><g/></defs><g fill="#c1a3a3" fill-opacity="1"><g transform="translate(159.015366, 134.643866)"><g><path d="M 111.347656 -0.628906 C 106.007812 -0.941406 103.652344 -4.082031 99.570312 -14.132812 L 59.992188 -108.367188 C 59.523438 -109.621094 58.894531 -109.9375 57.636719 -109.9375 L 43.03125 -109.9375 C 42.089844 -109.9375 41.777344 -109.464844 42.246094 -109.308594 C 43.1875 -108.992188 43.972656 -108.207031 44.289062 -107.265625 L 46.644531 -101.613281 C 47.273438 -100.199219 48.058594 -97.371094 46.800781 -94.386719 L 13.347656 -14.132812 C 9.109375 -4.082031 6.753906 -0.941406 1.414062 -0.628906 C 0.472656 -0.628906 0.628906 0.472656 1.414062 0.472656 C 2.984375 0.3125 6.28125 0 8.007812 0 L 14.761719 0 C 17.589844 0 23.242188 0.3125 25.597656 0.472656 C 27.011719 0.472656 27.328125 -0.628906 25.757812 -0.628906 C 16.804688 -0.941406 10.207031 -4.082031 14.449219 -14.132812 L 18.0625 -22.773438 L 18.0625 -22.617188 C 18.6875 -24.5 20.886719 -25.757812 23.085938 -25.757812 C 39.417969 -26.542969 55.753906 -30.625 69.730469 -37.222656 C 71.617188 -38.164062 72.871094 -37.847656 74.128906 -36.4375 L 83.550781 -14.132812 C 87.632812 -4.082031 81.351562 -0.941406 72.714844 -0.628906 C 71.144531 -0.628906 71.300781 0.472656 72.714844 0.472656 C 75.070312 0.3125 80.566406 0 83.238281 0 L 104.753906 0 C 106.480469 0 109.777344 0.3125 111.347656 0.472656 C 112.132812 0.472656 112.292969 -0.628906 111.347656 -0.628906 Z M 69.101562 -38.320312 C 55.910156 -31.566406 39.105469 -27.796875 23.242188 -26.855469 C 21.359375 -26.855469 20.730469 -28.425781 21.042969 -29.683594 L 48.84375 -96.429688 L 71.457031 -42.71875 L 71.300781 -42.71875 C 71.929688 -41.460938 71.144531 -39.261719 69.101562 -38.320312 Z M 69.101562 -38.320312 "/></g></g></g><g fill="#f3c5c5" fill-opacity="1"><g transform="translate(251.798699, 134.644239)"><g><path d="M 11.308594 -20.574219 C 8.953125 -9.421875 24.8125 2.355469 47.585938 2.355469 C 73.96875 2.355469 90.613281 -12.09375 90.613281 -29.523438 C 90.613281 -48.527344 73.339844 -57.636719 57.164062 -65.800781 C 41.144531 -73.96875 29.523438 -80.40625 29.523438 -92.5 C 29.523438 -103.175781 34.550781 -109.460938 52.453125 -109.460938 C 74.910156 -109.460938 84.175781 -94.699219 80.878906 -69.097656 C 80.71875 -67.371094 81.664062 -67.214844 81.976562 -68.628906 L 87.628906 -92.183594 C 90.300781 -104.433594 71.769531 -112.128906 56.066406 -112.128906 C 30.464844 -112.128906 15.703125 -97.839844 15.546875 -84.960938 C 15.390625 -70.828125 29.210938 -62.347656 46.640625 -53.082031 C 61.875 -45.542969 76.167969 -37.0625 76.167969 -21.515625 C 76.167969 -3.140625 60.460938 -0.3125 50.410156 -0.3125 C 26.855469 -0.3125 16.019531 -13.664062 18.53125 -44.285156 C 18.6875 -46.484375 17.902344 -46.328125 17.433594 -44.601562 Z M 11.308594 -20.574219 "/></g></g></g><g fill="#886f6f" fill-opacity="1"><g transform="translate(19.237781, 134.644602)"><g><path d="M 136.007812 -0.628906 C 129.097656 -0.941406 125.011719 -3.925781 123.914062 -14.761719 L 116.0625 -95.171875 C 114.960938 -106.007812 119.828125 -108.992188 127.054688 -109.308594 C 128.3125 -109.308594 128.152344 -110.40625 127.054688 -110.40625 C 125.011719 -110.25 120.457031 -109.9375 118.101562 -109.9375 L 104.125 -109.9375 C 103.496094 -109.9375 102.867188 -109.464844 102.710938 -108.835938 L 69.101562 -25.285156 C 68.789062 -24.65625 68.632812 -24.5 68.316406 -24.5 C 68.003906 -24.5 67.847656 -24.8125 67.6875 -25.285156 L 35.179688 -108.523438 C 34.867188 -109.464844 34.082031 -109.9375 32.980469 -109.9375 L 18.6875 -109.9375 C 16.492188 -109.9375 11.9375 -110.25 10.050781 -110.40625 C 8.953125 -110.40625 8.792969 -109.308594 10.050781 -109.308594 C 16.019531 -108.992188 19.316406 -106.792969 22.929688 -99.882812 L 15.078125 -14.761719 C 13.976562 -3.925781 9.894531 -0.941406 2.984375 -0.628906 C 1.570312 -0.628906 1.882812 0.472656 2.984375 0.472656 C 4.867188 0.3125 9.265625 0 11.464844 0 L 18.847656 0 C 21.515625 0 27.011719 0.3125 29.210938 0.472656 C 30.625 0.472656 30.78125 -0.628906 29.210938 -0.628906 C 20.730469 -0.941406 15.234375 -3.925781 16.175781 -14.761719 L 23.558594 -95.332031 C 23.714844 -95.957031 23.871094 -96.117188 24.1875 -96.117188 C 24.5 -96.117188 24.65625 -96.117188 25.128906 -95.015625 L 59.992188 -5.496094 C 60.464844 -4.398438 61.09375 -4.082031 61.722656 -4.082031 C 62.664062 -4.082031 63.132812 -4.554688 63.605469 -5.8125 L 99.257812 -96.585938 C 99.570312 -97.214844 99.882812 -97.527344 100.199219 -97.527344 C 100.511719 -97.527344 100.667969 -97.371094 100.828125 -96.742188 L 108.679688 -14.761719 C 109.777344 -3.925781 104.125 -0.941406 95.644531 -0.628906 C 94.074219 -0.628906 94.386719 0.472656 95.644531 0.472656 C 98 0.3125 103.339844 0 106.007812 0 L 127.527344 0 C 129.566406 0 134.121094 0.3125 136.007812 0.472656 C 137.105469 0.472656 137.261719 -0.628906 136.007812 -0.628906 Z M 23.402344 -98.941406 L 24.8125 -95.800781 Z M 23.402344 -98.941406 "/></g></g></g><g fill="#f9f5f2" fill-opacity="1"><g transform="translate(75.482281, 101.591027)"><g><path d="M 0.246094 7.363281 C 0.613281 7.363281 0.859375 7.117188 0.980469 6.871094 C 1.105469 6.503906 1.472656 5.890625 1.839844 5.152344 C 2.085938 4.90625 2.207031 4.785156 2.578125 4.664062 L 5.398438 4.664062 C 8.34375 4.664062 10.429688 4.90625 11.410156 5.277344 C 11.53125 5.398438 11.65625 5.398438 11.777344 5.398438 C 12.144531 5.398438 12.515625 5.03125 12.515625 4.664062 C 12.515625 4.417969 12.269531 4.171875 12.023438 4.046875 C 10.917969 3.433594 8.589844 3.191406 5.398438 3.191406 L 3.804688 3.191406 C 3.3125 3.3125 3.191406 2.945312 3.433594 2.578125 C 9.203125 -6.378906 22.941406 -24.78125 33.863281 -36.929688 C 34.109375 -37.175781 34.351562 -37.296875 34.597656 -37.175781 C 36.683594 -36.929688 38.890625 -36.4375 40.976562 -35.824219 L 41.222656 -35.824219 C 41.589844 -35.824219 41.960938 -36.070312 41.960938 -36.5625 C 41.960938 -36.808594 41.714844 -37.050781 41.347656 -37.175781 C 39.628906 -37.664062 37.910156 -38.035156 36.070312 -38.402344 C 35.703125 -38.402344 35.578125 -38.769531 35.824219 -39.136719 L 36.929688 -40.121094 C 37.050781 -40.242188 37.050781 -40.488281 37.050781 -40.609375 C 37.050781 -41.101562 36.808594 -41.347656 36.4375 -41.347656 C 36.191406 -41.347656 36.070312 -41.222656 35.949219 -41.101562 C 35.210938 -40.488281 34.597656 -39.75 33.984375 -39.015625 C 33.738281 -38.890625 33.492188 -38.769531 33.25 -38.769531 C 32.023438 -38.890625 30.796875 -39.015625 29.691406 -39.015625 C 26.011719 -39.015625 22.699219 -38.648438 21.59375 -38.15625 C 21.347656 -38.035156 21.226562 -37.789062 21.226562 -37.542969 C 21.226562 -37.175781 21.59375 -36.808594 21.960938 -36.808594 C 22.085938 -36.808594 22.207031 -36.808594 22.207031 -36.929688 C 23.066406 -37.296875 26.253906 -37.542969 29.691406 -37.542969 L 31.652344 -37.542969 C 32.144531 -37.542969 32.265625 -37.175781 31.898438 -36.808594 C 20.488281 -24.167969 6.625 -5.398438 1.472656 3.066406 C 1.347656 3.3125 1.105469 3.433594 0.859375 3.433594 C -1.839844 3.679688 -5.03125 4.171875 -7.730469 5.03125 C -7.976562 5.03125 -8.21875 5.398438 -8.21875 5.644531 C -8.21875 6.132812 -7.976562 6.378906 -7.484375 6.378906 L -7.363281 6.378906 C -5.152344 5.765625 -2.699219 5.277344 -0.367188 5.03125 C 0 4.90625 0.246094 5.277344 0 5.644531 C -0.121094 5.890625 -0.246094 6.132812 -0.367188 6.378906 L -0.367188 6.625 C -0.367188 6.992188 -0.121094 7.363281 0.246094 7.363281 Z M 0.246094 7.363281 "/></g></g></g><g fill="#f9f5f2" fill-opacity="1"><g transform="translate(102.350597, 101.591027)"><g><path d="M 0.734375 5.398438 C 5.519531 5.398438 19.386719 -2.207031 29.8125 -9.445312 C 29.9375 -9.570312 30.058594 -9.691406 30.058594 -9.9375 C 30.058594 -10.304688 29.8125 -10.675781 29.445312 -10.675781 C 29.199219 -10.675781 29.078125 -10.675781 28.953125 -10.550781 C 17.300781 -2.453125 4.664062 4.046875 0.734375 4.046875 C -1.347656 4.046875 -1.964844 3.558594 -1.964844 1.839844 C -1.964844 -0.613281 -0.367188 -4.417969 2.453125 -8.832031 C 23.3125 -21.46875 59.75 -53.371094 59.75 -60.484375 C 59.75 -62.082031 58.769531 -62.941406 57.050781 -62.941406 C 46.746094 -62.941406 -3.3125 -12.636719 -3.3125 1.839844 C -3.3125 4.292969 -2.085938 5.398438 0.734375 5.398438 Z M 4.292969 -11.53125 C 17.789062 -31.410156 49.445312 -61.589844 57.050781 -61.589844 C 58.03125 -61.589844 58.398438 -61.222656 58.398438 -60.484375 C 58.398438 -54.597656 26.011719 -25.519531 4.292969 -11.53125 Z M 4.292969 -11.53125 "/></g></g></g><g fill="#f9f5f2" fill-opacity="1"><g transform="translate(129.096227, 101.591027)"><g><path d="M -41.714844 50.179688 C -33.492188 50.179688 -10.550781 31.410156 5.277344 13.988281 C 7.117188 11.902344 8.957031 9.816406 10.550781 7.605469 C 21.960938 0.859375 31.777344 -5.765625 37.175781 -9.324219 C 37.296875 -9.445312 37.421875 -9.691406 37.421875 -9.9375 C 37.421875 -10.304688 37.050781 -10.550781 36.683594 -10.550781 C 36.5625 -10.550781 36.4375 -10.550781 36.316406 -10.429688 C 30.550781 -6.378906 22.941406 -1.347656 12.636719 4.664062 C 18.402344 -3.3125 21.960938 -10.675781 21.960938 -12.636719 C 21.960938 -13.617188 21.46875 -14.230469 20.488281 -14.230469 C 19.628906 -14.230469 18.035156 -13.128906 13.003906 -9.445312 C 7.851562 -5.519531 1.472656 -0.734375 -1.105469 -0.734375 C -1.71875 -0.734375 -1.839844 -0.859375 -1.839844 -1.226562 C -1.839844 -3.066406 3.433594 -10.183594 7.117188 -13.375 C 7.238281 -13.496094 7.363281 -13.617188 7.363281 -13.863281 C 7.363281 -14.230469 6.992188 -14.601562 6.625 -14.601562 C 6.503906 -14.601562 6.378906 -14.476562 6.257812 -14.476562 C 2.945312 -11.65625 -3.3125 -3.925781 -3.3125 -1.226562 C -3.3125 0 -2.453125 0.734375 -1.105469 0.734375 C 1.964844 0.734375 8.710938 -4.417969 13.988281 -8.21875 C 17.175781 -10.675781 18.894531 -12.023438 19.875 -12.515625 C 20.242188 -12.757812 20.488281 -12.515625 20.488281 -12.144531 C 19.628906 -8.34375 13.496094 1.347656 9.570312 6.503906 L 8.710938 6.992188 L -10.304688 18.402344 C -33.863281 33.003906 -44.660156 41.835938 -44.660156 47.359375 C -44.660156 49.074219 -43.433594 50.179688 -41.714844 50.179688 Z M -41.714844 48.707031 C -42.695312 48.707031 -43.1875 48.21875 -43.1875 47.359375 C -43.1875 42.574219 -32.390625 33.738281 -9.570312 19.628906 C -4.046875 16.195312 1.71875 12.882812 7.238281 9.570312 L 4.292969 13.003906 C -12.757812 31.898438 -34.476562 48.707031 -41.714844 48.707031 Z M -41.714844 48.707031 "/></g></g></g><g fill="#f9f5f2" fill-opacity="1"><g transform="translate(163.203037, 101.591027)"><g><path d="M -0.492188 5.890625 C 3.558594 5.890625 8.832031 1.59375 11.289062 -1.964844 L 11.65625 -2.207031 C 14.84375 -3.191406 18.769531 -4.417969 22.941406 -5.644531 C 27.113281 -6.871094 31.53125 -8.097656 35.210938 -9.324219 C 35.578125 -9.445312 35.703125 -9.691406 35.703125 -10.058594 C 35.703125 -10.429688 35.457031 -10.675781 35.089844 -10.675781 L 34.84375 -10.675781 C 31.164062 -9.445312 26.746094 -8.21875 22.574219 -6.992188 C 19.140625 -6.011719 15.703125 -4.90625 12.757812 -4.046875 C 12.636719 -3.925781 12.515625 -4.046875 12.515625 -4.292969 C 12.636719 -4.539062 12.636719 -4.785156 12.757812 -4.90625 C 12.757812 -6.132812 11.902344 -6.625 10.429688 -6.625 C 9.445312 -6.625 8.21875 -6.378906 6.871094 -6.132812 C 5.519531 -5.890625 4.046875 -5.644531 2.945312 -5.644531 C 1.839844 -5.644531 1.472656 -5.890625 1.472656 -6.257812 C 1.472656 -9.078125 7.851562 -13.988281 11.53125 -13.988281 C 12.144531 -13.988281 12.269531 -13.742188 12.269531 -13.375 C 12.269531 -12.515625 11.164062 -11.164062 10.304688 -10.675781 C 10.058594 -10.550781 9.9375 -10.304688 9.9375 -10.058594 C 9.9375 -9.570312 10.304688 -9.324219 10.675781 -9.324219 C 10.796875 -9.324219 10.917969 -9.324219 11.042969 -9.445312 C 12.144531 -10.058594 13.25 -11.53125 13.617188 -13.003906 C 13.742188 -13.128906 13.742188 -13.375 13.742188 -13.496094 C 13.742188 -14.601562 12.882812 -15.335938 11.53125 -15.335938 C 7.117188 -15.335938 0 -9.816406 0 -6.257812 C 0 -4.90625 1.105469 -4.292969 2.945312 -4.292969 C 4.171875 -4.292969 5.644531 -4.539062 7.117188 -4.785156 C 8.097656 -4.90625 11.164062 -5.398438 11.289062 -5.03125 C 11.53125 -4.664062 11.042969 -4.046875 10.675781 -3.433594 C 10.675781 -3.3125 10.550781 -3.3125 10.429688 -3.3125 C 5.519531 -1.472656 -2.578125 1.964844 -2.578125 4.292969 C -2.578125 5.398438 -1.839844 5.890625 -0.492188 5.890625 Z M -0.492188 4.417969 C -1.105469 4.417969 -1.226562 4.417969 -1.226562 4.171875 C -1.226562 3.558594 3.066406 1.105469 8.21875 -0.980469 C 8.589844 -0.980469 8.710938 -0.859375 8.464844 -0.613281 C 6.011719 1.964844 2.332031 4.417969 -0.492188 4.417969 Z M -0.492188 4.417969 "/></g></g></g><g fill="#f9f5f2" fill-opacity="1"><g transform="translate(195.46955, 101.591027)"><g><path d="M 4.046875 0.367188 C 7.851562 0.367188 19.753906 -3.066406 28.339844 -9.445312 C 28.585938 -9.570312 28.710938 -9.816406 28.710938 -10.058594 C 28.710938 -10.429688 28.339844 -10.675781 27.972656 -10.675781 C 27.851562 -10.675781 27.726562 -10.675781 27.605469 -10.550781 C 19.140625 -4.417969 7.605469 -1.105469 4.046875 -1.105469 C 1.226562 -1.105469 -0.246094 -1.839844 -0.246094 -3.433594 C -0.246094 -5.03125 0.980469 -6.992188 2.578125 -8.710938 C 3.3125 -8.34375 4.292969 -8.21875 5.644531 -8.21875 C 7.851562 -8.21875 10.675781 -10.058594 10.675781 -11.65625 C 10.675781 -12.882812 9.816406 -13.617188 8.464844 -13.617188 C 4.417969 -13.617188 -1.71875 -7.484375 -1.71875 -3.433594 C -1.71875 -0.980469 0.492188 0.367188 4.046875 0.367188 Z M 5.644531 -9.570312 C 4.785156 -9.570312 4.171875 -9.691406 3.679688 -9.816406 C 5.277344 -11.164062 6.992188 -12.144531 8.464844 -12.144531 C 9.078125 -12.144531 9.324219 -12.023438 9.324219 -11.65625 C 9.324219 -10.917969 6.992188 -9.570312 5.644531 -9.570312 Z M 5.644531 -9.570312 "/></g></g></g><g fill="#f9f5f2" fill-opacity="1"><g transform="translate(220.620255, 101.591027)"><g><path d="M 14.476562 0 C 18.769531 0 30.671875 -5.277344 36.929688 -9.570312 C 37.050781 -9.691406 37.175781 -9.816406 37.175781 -10.058594 C 37.175781 -10.429688 36.929688 -10.796875 36.5625 -10.796875 C 36.316406 -10.796875 36.191406 -10.796875 36.070312 -10.675781 C 29.691406 -6.257812 18.28125 -1.347656 14.476562 -1.347656 C 12.269531 -1.347656 11.410156 -2.085938 11.410156 -3.679688 C 11.410156 -6.011719 14.109375 -9.078125 15.949219 -11.164062 C 17.300781 -12.757812 18.402344 -14.355469 16.6875 -14.355469 C 15.949219 -14.355469 14.355469 -13.003906 10.429688 -9.816406 C 4.171875 -4.785156 0.613281 -2.332031 -0.859375 -2.332031 C -1.105469 -2.332031 -1.226562 -2.578125 -1.226562 -2.945312 C -1.226562 -4.539062 1.226562 -7.851562 5.398438 -11.53125 C 5.519531 -11.65625 5.644531 -11.777344 5.644531 -12.023438 C 5.644531 -12.390625 5.277344 -12.757812 4.90625 -12.757812 C 4.664062 -12.757812 4.539062 -12.636719 4.417969 -12.515625 C -0.121094 -8.464844 -2.699219 -5.03125 -2.699219 -2.820312 C -2.699219 -1.71875 -1.964844 -0.980469 -0.859375 -0.980469 C 1.105469 -0.980469 4.664062 -3.3125 11.289062 -8.710938 C 12.757812 -9.816406 12.636719 -9.570312 11.777344 -8.34375 C 10.796875 -6.746094 10.058594 -5.152344 10.058594 -3.679688 C 10.058594 -1.226562 11.53125 0 14.476562 0 Z M 14.476562 0 "/></g></g></g><g fill="#f9f5f2" fill-opacity="1"><g transform="translate(254.359006, 101.591027)"><g><path d="M -3.433594 0.734375 C -2.453125 0.734375 -0.734375 -0.492188 4.785156 -5.152344 C 10.304688 -9.570312 16.6875 -14.96875 19.628906 -14.96875 C 20.121094 -14.96875 20.367188 -14.722656 20.367188 -14.355469 C 20.367188 -13.496094 19.386719 -11.65625 16.808594 -7.605469 C 14.476562 -4.292969 13.863281 -3.066406 13.863281 -2.207031 C 13.863281 -1.59375 14.109375 -1.105469 14.722656 -1.105469 C 15.457031 -1.105469 16.6875 -1.71875 20 -3.804688 C 24.292969 -6.378906 26.011719 -7.238281 26.867188 -7.238281 C 27.238281 -7.238281 27.359375 -6.992188 27.359375 -6.871094 C 27.359375 -6.378906 27.238281 -5.765625 27.113281 -5.03125 C 26.992188 -4.292969 26.992188 -3.433594 26.992188 -2.578125 C 26.992188 -1.105469 28.097656 -0.246094 30.058594 -0.246094 C 33.492188 -0.246094 38.648438 -2.820312 48.21875 -9.445312 C 48.460938 -9.570312 48.585938 -9.816406 48.585938 -10.058594 C 48.585938 -10.429688 48.21875 -10.675781 47.847656 -10.675781 C 47.726562 -10.675781 47.601562 -10.675781 47.480469 -10.550781 C 38.15625 -4.171875 33.125 -1.59375 30.058594 -1.59375 C 28.832031 -1.59375 28.339844 -1.964844 28.339844 -2.578125 C 28.339844 -3.3125 28.464844 -4.171875 28.585938 -4.90625 C 28.585938 -5.519531 28.710938 -6.257812 28.710938 -6.871094 C 28.710938 -7.976562 28.21875 -8.589844 27.113281 -8.589844 C 25.398438 -8.589844 22.085938 -6.625 19.261719 -5.03125 L 16.5625 -3.3125 C 16.074219 -3.066406 15.703125 -3.433594 16.074219 -3.925781 L 17.914062 -6.871094 C 20.734375 -11.164062 21.839844 -13.003906 21.839844 -14.476562 C 21.839844 -15.703125 20.855469 -16.316406 19.261719 -16.316406 C 16.929688 -16.316406 13.003906 -13.617188 3.925781 -6.132812 C 1.226562 -4.046875 -0.492188 -2.578125 -1.71875 -1.71875 C -2.085938 -1.472656 -2.578125 -1.71875 -2.207031 -2.207031 C -0.734375 -4.785156 2.820312 -9.445312 6.746094 -13.003906 C 6.871094 -13.128906 6.992188 -13.375 6.992188 -13.496094 C 6.992188 -13.988281 6.625 -14.230469 6.257812 -14.230469 C 6.132812 -14.230469 5.890625 -14.230469 5.765625 -14.109375 C 1.472656 -10.183594 -4.539062 -2.207031 -4.539062 -0.492188 C -4.539062 0.246094 -4.171875 0.613281 -3.433594 0.734375 Z M -3.433594 0.734375 "/></g></g></g></svg>