<svg xmlns="http://www.w3.org/2000/svg" xmlns:xlink="http://www.w3.org/1999/xlink" width="500" zoomAndPan="magnify" viewBox="0 0 375 374.999991" height="500" preserveAspectRatio="xMidYMid meet" version="1.0"><defs><g/><clipPath id="id1"><path d="M 95.992188 88.167969 L 278.992188 88.167969 L 278.992188 154.167969 L 95.992188 154.167969 Z M 95.992188 88.167969 " clip-rule="nonzero"/></clipPath><clipPath id="id2"><path d="M 95.992188 211.875 L 278.992188 211.875 L 278.992188 277.6875 L 95.992188 277.6875 Z M 95.992188 211.875 " clip-rule="nonzero"/></clipPath></defs><g clip-path="url(#id1)"><path fill="#fafafa" d="M 187.492188 88.1875 C 214.140625 88.1875 238.261719 99.019531 255.722656 116.53125 C 266.148438 126.984375 274.199219 139.820312 278.992188 154.15625 L 277.585938 154.15625 C 272.839844 140.191406 264.960938 127.683594 254.78125 117.476562 C 237.5625 100.207031 213.769531 89.523438 187.492188 89.523438 C 161.214844 89.523438 137.421875 100.207031 120.203125 117.476562 C 110.027344 127.683594 102.144531 140.191406 97.398438 154.15625 L 95.992188 154.15625 C 100.789062 139.824219 108.839844 126.988281 119.261719 116.53125 C 136.722656 99.019531 160.847656 88.1875 187.492188 88.1875 Z M 187.492188 88.1875 " fill-opacity="1" fill-rule="evenodd"/></g><g clip-path="url(#id2)"><path fill="#fafafa" d="M 187.492188 277.667969 C 214.140625 277.667969 238.261719 266.835938 255.722656 249.324219 C 266.148438 238.871094 274.199219 226.035156 278.992188 211.699219 L 277.585938 211.699219 C 272.839844 225.664062 264.960938 238.171875 254.78125 248.378906 C 237.5625 265.648438 213.769531 276.332031 187.492188 276.332031 C 161.214844 276.332031 137.421875 265.648438 120.203125 248.378906 C 110.027344 238.171875 102.144531 225.664062 97.398438 211.699219 L 95.992188 211.699219 C 100.789062 226.03125 108.839844 238.867188 119.261719 249.324219 C 136.722656 266.835938 160.847656 277.667969 187.492188 277.667969 Z M 187.492188 277.667969 " fill-opacity="1" fill-rule="evenodd"/></g><g fill="#fafafa" fill-opacity="1"><g transform="translate(24.929986, 216.842242)"><g><path d="M 84.546875 -46.484375 C 84.460938 -46.253906 84.375 -46.023438 84.28125 -45.796875 C 83.382812 -43.453125 82.414062 -41.148438 81.375 -38.890625 C 76 -27.734375 70.234375 -16.941406 64.078125 -6.515625 C 62.066406 -3.148438 60.015625 0.15625 57.921875 3.40625 C 55.828125 6.65625 53.722656 9.894531 51.609375 13.125 C 51.109375 13.875 50.601562 14.628906 50.09375 15.390625 C 50.0625 15.453125 50.035156 15.5 50.015625 15.53125 C 49.898438 15.757812 49.765625 15.953125 49.609375 16.109375 C 49.453125 16.265625 49.242188 16.34375 48.984375 16.34375 C 48.867188 16.34375 48.75 16.3125 48.625 16.25 C 48.5 16.1875 48.394531 16.113281 48.3125 16.03125 C 48.25 15.945312 48.203125 15.816406 48.171875 15.640625 C 48.148438 15.472656 48.164062 15.335938 48.21875 15.234375 C 48.5625 14.492188 48.945312 13.789062 49.375 13.125 C 50.320312 11.5625 51.28125 10.003906 52.25 8.453125 C 54.050781 5.566406 55.828125 2.671875 57.578125 -0.234375 C 61.460938 -6.703125 65.171875 -13.304688 68.703125 -20.046875 C 72.234375 -26.796875 75.679688 -33.613281 79.046875 -40.5 C 80.390625 -43.15625 81.5 -46 82.375 -49.03125 C 82.550781 -49.550781 82.6875 -50.09375 82.78125 -50.65625 C 82.882812 -51.226562 82.9375 -51.816406 82.9375 -52.421875 C 82.84375 -53.710938 82.289062 -54.273438 81.28125 -54.109375 C 80.375 -53.929688 79.523438 -53.648438 78.734375 -53.265625 C 76.847656 -52.347656 74.984375 -51.335938 73.140625 -50.234375 C 63.273438 -44.253906 54.296875 -36.828125 46.203125 -27.953125 C 46.078125 -27.804688 45.945312 -27.664062 45.8125 -27.53125 C 43.007812 -24.488281 40.226562 -21.414062 37.46875 -18.3125 C 34.71875 -15.21875 32.046875 -12.035156 29.453125 -8.765625 C 28.910156 -8.085938 28.347656 -7.453125 27.765625 -6.859375 C 27.128906 -6.203125 26.375 -5.945312 25.5 -6.09375 C 25.132812 -6.144531 24.832031 -6.328125 24.59375 -6.640625 C 24.351562 -6.953125 24.257812 -7.320312 24.3125 -7.75 C 24.488281 -8.90625 24.742188 -10.019531 25.078125 -11.09375 C 26.117188 -14.507812 27.222656 -17.878906 28.390625 -21.203125 C 28.554688 -21.722656 28.710938 -22.21875 28.859375 -22.6875 C 29.160156 -23.9375 29.597656 -25.085938 30.171875 -26.140625 C 30.171875 -26.171875 30.15625 -26.1875 30.125 -26.1875 C 29.988281 -26.257812 29.847656 -26.316406 29.703125 -26.359375 C 29.566406 -26.410156 29.425781 -26.363281 29.28125 -26.21875 C 28.769531 -25.65625 28.273438 -25.066406 27.796875 -24.453125 C 23.890625 -19.160156 20.019531 -13.820312 16.1875 -8.4375 C 12.363281 -3.050781 8.628906 2.414062 4.984375 7.96875 C 4.679688 8.507812 4.335938 8.953125 3.953125 9.296875 C 3.578125 9.640625 3.078125 9.75 2.453125 9.625 C 2.160156 9.550781 1.9375 9.378906 1.78125 9.109375 C 1.632812 8.835938 1.601562 8.578125 1.6875 8.328125 C 2.03125 7.566406 2.398438 6.847656 2.796875 6.171875 C 3.921875 4.210938 5.035156 2.257812 6.140625 0.3125 C 8.367188 -3.550781 10.570312 -7.4375 12.75 -11.34375 C 16.144531 -17.332031 19.171875 -23.632812 21.828125 -30.25 C 22.867188 -32.789062 23.71875 -35.460938 24.375 -38.265625 C 24.726562 -39.753906 24.878906 -41.304688 24.828125 -42.921875 C 24.660156 -45.515625 23.800781 -47.367188 22.25 -48.484375 C 20.695312 -49.597656 18.65625 -50.125 16.125 -50.0625 C 13.59375 -50.007812 10.785156 -49.492188 7.703125 -48.515625 C 4.617188 -47.546875 1.460938 -46.257812 -1.765625 -44.65625 C -5.003906 -43.050781 -8.125 -41.273438 -11.125 -39.328125 C -14.132812 -37.390625 -16.8125 -35.425781 -19.15625 -33.4375 C -21.5 -31.445312 -23.328125 -29.582031 -24.640625 -27.84375 C -26.015625 -25.914062 -27.179688 -23.796875 -28.140625 -21.484375 C -28.628906 -20.378906 -28.914062 -19.175781 -29 -17.875 C -29.019531 -17.613281 -29.144531 -17.421875 -29.375 -17.296875 C -29.601562 -17.171875 -29.863281 -17.132812 -30.15625 -17.1875 C -30.601562 -17.320312 -30.882812 -17.675781 -31 -18.25 C -31.070312 -18.988281 -31.015625 -19.664062 -30.828125 -20.28125 C -30.398438 -21.832031 -29.832031 -23.304688 -29.125 -24.703125 C -27.832031 -27.128906 -25.863281 -29.601562 -23.21875 -32.125 C -20.570312 -34.65625 -17.488281 -37.078125 -13.96875 -39.390625 C -10.445312 -41.710938 -6.769531 -43.78125 -2.9375 -45.59375 C 0.882812 -47.414062 4.625 -48.832031 8.28125 -49.84375 C 11.945312 -50.851562 15.242188 -51.304688 18.171875 -51.203125 C 21.109375 -51.097656 23.421875 -50.289062 25.109375 -48.78125 C 26.804688 -47.269531 27.632812 -44.894531 27.59375 -41.65625 C 27.5 -39.5625 27.171875 -37.566406 26.609375 -35.671875 C 25.785156 -32.898438 24.835938 -30.21875 23.765625 -27.625 C 22.691406 -25.039062 21.550781 -22.507812 20.34375 -20.03125 C 19.96875 -19.257812 19.882812 -18.882812 20.09375 -18.90625 C 20.3125 -18.925781 20.632812 -19.21875 21.0625 -19.78125 C 22.582031 -21.8125 24.109375 -23.816406 25.640625 -25.796875 C 26.679688 -27.117188 27.738281 -28.414062 28.8125 -29.6875 C 28.957031 -29.863281 29.101562 -30.035156 29.25 -30.203125 C 29.863281 -30.960938 30.609375 -31.472656 31.484375 -31.734375 C 32.128906 -31.867188 32.675781 -31.71875 33.125 -31.28125 C 33.582031 -30.84375 33.738281 -30.1875 33.59375 -29.3125 C 33.570312 -29.226562 33.546875 -29.140625 33.515625 -29.046875 C 33.285156 -27.921875 33.015625 -26.820312 32.703125 -25.75 C 31.890625 -23.144531 31.046875 -20.5625 30.171875 -18 C 29.742188 -16.675781 29.316406 -15.332031 28.890625 -13.96875 C 28.804688 -13.769531 28.679688 -13.414062 28.515625 -12.90625 C 28.347656 -12.457031 28.1875 -12.015625 28.03125 -11.578125 C 27.875 -11.140625 27.75 -10.804688 27.65625 -10.578125 C 27.78125 -10.660156 28.828125 -11.832031 30.796875 -14.09375 C 33.484375 -17.175781 36.660156 -20.785156 40.328125 -24.921875 C 44.003906 -29.054688 46.890625 -32.21875 48.984375 -34.40625 C 52.847656 -38.300781 56.921875 -41.84375 61.203125 -45.03125 C 65.492188 -48.21875 69.9375 -51.101562 74.53125 -53.6875 C 75.664062 -54.28125 76.828125 -54.8125 78.015625 -55.28125 C 78.273438 -55.375 78.523438 -55.476562 78.765625 -55.59375 C 79.898438 -56.039062 81.101562 -56.207031 82.375 -56.09375 C 84.8125 -55.863281 85.925781 -54.320312 85.71875 -51.46875 C 85.582031 -49.695312 85.191406 -48.035156 84.546875 -46.484375 Z M 30.03125 -26.296875 C 30.09375 -26.242188 30.140625 -26.207031 30.171875 -26.1875 C 30.171875 -26.1875 30.171875 -26.171875 30.171875 -26.140625 C 30.191406 -26.140625 30.203125 -26.15625 30.203125 -26.1875 C 30.148438 -26.207031 30.09375 -26.242188 30.03125 -26.296875 Z M 30.03125 -26.296875 "/></g></g></g><g fill="#fafafa" fill-opacity="1"><g transform="translate(97.544026, 216.842242)"><g><path d="M 13.96875 -9.8125 C 14.269531 -9.644531 14.296875 -9.222656 14.046875 -8.546875 C 13.671875 -8.066406 13.269531 -7.613281 12.84375 -7.1875 C 12.425781 -6.757812 11.96875 -6.378906 11.46875 -6.046875 C 11.425781 -6.046875 11.40625 -6.035156 11.40625 -6.015625 C 11.070312 -5.773438 10.71875 -5.570312 10.34375 -5.40625 C 7.269531 -4.300781 5.703125 -4.953125 5.640625 -7.359375 C 4.398438 -6.273438 3.566406 -5.613281 3.140625 -5.375 C 2.128906 -4.769531 1.03125 -4.5 -0.15625 -4.5625 C -1.03125 -4.613281 -1.625 -4.878906 -1.9375 -5.359375 C -2.25 -5.847656 -2.21875 -6.503906 -1.84375 -7.328125 C -1.28125 -8.617188 -0.476562 -9.769531 0.5625 -10.78125 C 1.78125 -11.914062 3.132812 -12.820312 4.625 -13.5 C 5.414062 -13.894531 6.25 -14.050781 7.125 -13.96875 C 8 -13.914062 8.523438 -13.421875 8.703125 -12.484375 C 8.785156 -12.203125 8.71875 -11.953125 8.5 -11.734375 C 8.21875 -11.472656 7.890625 -11.414062 7.515625 -11.5625 C 7.484375 -11.5625 7.445312 -11.566406 7.40625 -11.578125 C 7.363281 -11.585938 7.328125 -11.609375 7.296875 -11.640625 C 6.929688 -12.148438 6.554688 -12.363281 6.171875 -12.28125 C 5.796875 -12.195312 5.394531 -12.023438 4.96875 -11.765625 C 2.988281 -10.609375 1.519531 -9 0.5625 -6.9375 C 0.507812 -6.84375 0.472656 -6.738281 0.453125 -6.625 C 0.441406 -6.519531 0.476562 -6.4375 0.5625 -6.375 C 0.789062 -6.300781 1.046875 -6.316406 1.328125 -6.421875 C 1.609375 -6.535156 1.890625 -6.695312 2.171875 -6.90625 C 2.453125 -7.113281 2.691406 -7.289062 2.890625 -7.4375 C 2.910156 -7.476562 2.921875 -7.5 2.921875 -7.5 C 3.859375 -8.28125 4.78125 -9.082031 5.6875 -9.90625 C 6.082031 -10.320312 6.578125 -10.554688 7.171875 -10.609375 C 8.015625 -10.609375 8.363281 -10.234375 8.21875 -9.484375 C 8.144531 -9.191406 8.0625 -8.90625 7.96875 -8.625 C 7.632812 -7.40625 7.625 -6.691406 7.9375 -6.484375 C 8.25 -6.273438 8.722656 -6.273438 9.359375 -6.484375 C 9.992188 -6.691406 10.628906 -7.09375 11.265625 -7.6875 C 11.898438 -8.289062 12.4375 -8.835938 12.875 -9.328125 C 13.3125 -9.828125 13.675781 -9.988281 13.96875 -9.8125 Z M 13.96875 -9.8125 "/></g></g></g><g fill="#fafafa" fill-opacity="1"><g transform="translate(110.317474, 216.842242)"><g><path d="M 9.25 -11.828125 C 9.132812 -10.941406 8.71875 -10.363281 8 -10.09375 C 7.28125 -9.820312 7.046875 -10.175781 7.296875 -11.15625 C 7.546875 -12.132812 7.101562 -12.378906 5.96875 -11.890625 C 4.84375 -11.410156 3.910156 -10.804688 3.171875 -10.078125 C 2.046875 -8.921875 1.046875 -7.675781 0.171875 -6.34375 C 0.078125 -6.226562 0.0078125 -6.128906 -0.03125 -6.046875 C -0.289062 -5.671875 -0.550781 -5.316406 -0.8125 -4.984375 C -0.976562 -4.753906 -1.171875 -4.609375 -1.390625 -4.546875 C -1.617188 -4.492188 -1.847656 -4.488281 -2.078125 -4.53125 C -2.296875 -4.550781 -2.460938 -4.628906 -2.578125 -4.765625 C -2.691406 -4.910156 -2.707031 -5.082031 -2.625 -5.28125 C -2.476562 -5.625 -2.3125 -5.976562 -2.125 -6.34375 C -0.96875 -8.488281 0.207031 -10.640625 1.40625 -12.796875 C 1.425781 -12.816406 1.4375 -12.84375 1.4375 -12.875 C 1.601562 -13.207031 1.804688 -13.515625 2.046875 -13.796875 C 2.296875 -14.078125 2.585938 -14.191406 2.921875 -14.140625 C 3.253906 -14.085938 3.484375 -13.890625 3.609375 -13.546875 C 3.742188 -13.097656 3.863281 -12.84375 3.96875 -12.78125 C 4.070312 -12.71875 4.300781 -12.757812 4.65625 -12.90625 C 5.425781 -13.1875 6.175781 -13.382812 6.90625 -13.5 C 7.644531 -13.613281 8.25 -13.582031 8.71875 -13.40625 C 9.1875 -13.238281 9.363281 -12.710938 9.25 -11.828125 Z M 9.25 -11.828125 "/></g></g></g><g fill="#fafafa" fill-opacity="1"><g transform="translate(119.950537, 216.842242)"><g><path d="M 7.65625 -8.109375 C 6.96875 -7.296875 6.15625 -6.550781 5.21875 -5.875 C 4.28125 -5.195312 3.21875 -4.738281 2.03125 -4.5 C 0.851562 -4.257812 -0.0546875 -4.34375 -0.703125 -4.75 C -1.359375 -5.164062 -1.488281 -6.082031 -1.09375 -7.5 C -0.582031 -8.957031 0.117188 -10.347656 1.015625 -11.671875 C 1.222656 -11.953125 1.519531 -12.148438 1.90625 -12.265625 C 2.1875 -12.335938 2.429688 -12.289062 2.640625 -12.125 C 2.859375 -11.96875 2.941406 -11.765625 2.890625 -11.515625 C 2.691406 -11.054688 2.476562 -10.59375 2.25 -10.125 C 2.019531 -9.664062 1.867188 -9.367188 1.796875 -9.234375 C 1.347656 -8.410156 1.03125 -7.546875 0.84375 -6.640625 C 0.84375 -6.128906 1.53125 -6.097656 2.90625 -6.546875 C 4.28125 -6.992188 5.613281 -7.816406 6.90625 -9.015625 C 8.207031 -10.222656 8.828125 -10.578125 8.765625 -10.078125 C 8.710938 -9.585938 8.34375 -8.929688 7.65625 -8.109375 Z M 4.296875 -14.5625 C 4.234375 -14.507812 4.101562 -14.445312 3.90625 -14.375 C 3.707031 -14.3125 3.492188 -14.257812 3.265625 -14.21875 C 3.035156 -14.1875 2.859375 -14.222656 2.734375 -14.328125 C 2.609375 -14.429688 2.601562 -14.640625 2.71875 -14.953125 C 2.925781 -15.492188 3.140625 -15.960938 3.359375 -16.359375 C 3.585938 -16.765625 3.878906 -17.210938 4.234375 -17.703125 C 4.460938 -17.921875 4.710938 -18.039062 4.984375 -18.0625 C 5.253906 -18.082031 5.476562 -18.007812 5.65625 -17.84375 C 5.84375 -17.6875 5.894531 -17.46875 5.8125 -17.1875 C 5.53125 -16.164062 5.023438 -15.289062 4.296875 -14.5625 Z M 4.296875 -14.5625 "/></g></g></g><g fill="#fafafa" fill-opacity="1"><g transform="translate(127.464327, 216.842242)"><g><path d="M 13.96875 -9.8125 C 14.269531 -9.644531 14.296875 -9.222656 14.046875 -8.546875 C 13.671875 -8.066406 13.269531 -7.613281 12.84375 -7.1875 C 12.425781 -6.757812 11.96875 -6.378906 11.46875 -6.046875 C 11.425781 -6.046875 11.40625 -6.035156 11.40625 -6.015625 C 11.070312 -5.773438 10.71875 -5.570312 10.34375 -5.40625 C 7.269531 -4.300781 5.703125 -4.953125 5.640625 -7.359375 C 4.398438 -6.273438 3.566406 -5.613281 3.140625 -5.375 C 2.128906 -4.769531 1.03125 -4.5 -0.15625 -4.5625 C -1.03125 -4.613281 -1.625 -4.878906 -1.9375 -5.359375 C -2.25 -5.847656 -2.21875 -6.503906 -1.84375 -7.328125 C -1.28125 -8.617188 -0.476562 -9.769531 0.5625 -10.78125 C 1.78125 -11.914062 3.132812 -12.820312 4.625 -13.5 C 5.414062 -13.894531 6.25 -14.050781 7.125 -13.96875 C 8 -13.914062 8.523438 -13.421875 8.703125 -12.484375 C 8.785156 -12.203125 8.71875 -11.953125 8.5 -11.734375 C 8.21875 -11.472656 7.890625 -11.414062 7.515625 -11.5625 C 7.484375 -11.5625 7.445312 -11.566406 7.40625 -11.578125 C 7.363281 -11.585938 7.328125 -11.609375 7.296875 -11.640625 C 6.929688 -12.148438 6.554688 -12.363281 6.171875 -12.28125 C 5.796875 -12.195312 5.394531 -12.023438 4.96875 -11.765625 C 2.988281 -10.609375 1.519531 -9 0.5625 -6.9375 C 0.507812 -6.84375 0.472656 -6.738281 0.453125 -6.625 C 0.441406 -6.519531 0.476562 -6.4375 0.5625 -6.375 C 0.789062 -6.300781 1.046875 -6.316406 1.328125 -6.421875 C 1.609375 -6.535156 1.890625 -6.695312 2.171875 -6.90625 C 2.453125 -7.113281 2.691406 -7.289062 2.890625 -7.4375 C 2.910156 -7.476562 2.921875 -7.5 2.921875 -7.5 C 3.859375 -8.28125 4.78125 -9.082031 5.6875 -9.90625 C 6.082031 -10.320312 6.578125 -10.554688 7.171875 -10.609375 C 8.015625 -10.609375 8.363281 -10.234375 8.21875 -9.484375 C 8.144531 -9.191406 8.0625 -8.90625 7.96875 -8.625 C 7.632812 -7.40625 7.625 -6.691406 7.9375 -6.484375 C 8.25 -6.273438 8.722656 -6.273438 9.359375 -6.484375 C 9.992188 -6.691406 10.628906 -7.09375 11.265625 -7.6875 C 11.898438 -8.289062 12.4375 -8.835938 12.875 -9.328125 C 13.3125 -9.828125 13.675781 -9.988281 13.96875 -9.8125 Z M 13.96875 -9.8125 "/></g></g></g><g fill="#fafafa" fill-opacity="1"><g transform="translate(140.237775, 216.842242)"><g/></g></g><g fill="#fafafa" fill-opacity="1"><g transform="translate(154.802968, 216.842242)"><g><path d="M 104.125 -17.609375 C 101.664062 -17.890625 99.191406 -18.03125 96.703125 -18.03125 C 95.609375 -18.070312 94.5 -18.101562 93.375 -18.125 C 83.082031 -18.550781 72.769531 -18.660156 62.4375 -18.453125 C 61.925781 -18.453125 61.5 -18.453125 61.15625 -18.453125 C 60.59375 -18.492188 60.179688 -18.488281 59.921875 -18.4375 C 59.671875 -18.394531 59.46875 -18.253906 59.3125 -18.015625 C 59.15625 -17.785156 58.976562 -17.398438 58.78125 -16.859375 C 58.632812 -16.546875 58.46875 -16.160156 58.28125 -15.703125 C 56.550781 -11.953125 54.96875 -8.132812 53.53125 -4.25 C 52.59375 -1.75 51.867188 0.816406 51.359375 3.453125 C 51.160156 4.273438 51.09375 5.070312 51.15625 5.84375 C 51.21875 6.625 51.566406 7.320312 52.203125 7.9375 C 52.296875 8 52.328125 8.078125 52.296875 8.171875 C 52.273438 8.273438 52.21875 8.367188 52.125 8.453125 C 52.039062 8.535156 51.945312 8.585938 51.84375 8.609375 C 50.3125 8.835938 49.390625 8.289062 49.078125 6.96875 C 48.898438 6.226562 48.867188 5.46875 48.984375 4.6875 C 48.984375 4.613281 48.984375 4.566406 48.984375 4.546875 C 49.097656 3.203125 49.335938 1.863281 49.703125 0.53125 C 50.078125 -0.800781 50.488281 -2.132812 50.9375 -3.46875 C 52.382812 -7.476562 53.984375 -11.429688 55.734375 -15.328125 C 55.816406 -15.492188 55.882812 -15.660156 55.9375 -15.828125 C 56.03125 -16.023438 56.128906 -16.226562 56.234375 -16.4375 C 56.367188 -16.71875 56.492188 -17 56.609375 -17.28125 C 56.734375 -17.5625 56.78125 -17.859375 56.75 -18.171875 C 56.613281 -18.285156 56.472656 -18.351562 56.328125 -18.375 C 56.179688 -18.40625 56.039062 -18.40625 55.90625 -18.375 C 55.875 -18.375 55.84375 -18.375 55.8125 -18.375 C 54.601562 -18.375 53.390625 -18.363281 52.171875 -18.34375 C 51.835938 -18.34375 51.484375 -18.34375 51.109375 -18.34375 C 50.660156 -18.3125 50.28125 -18.164062 49.96875 -17.90625 C 49.664062 -17.65625 49.367188 -17.34375 49.078125 -16.96875 C 48.710938 -16.5 48.34375 -16.023438 47.96875 -15.546875 C 46.382812 -13.523438 44.789062 -11.53125 43.1875 -9.5625 C 40.8125 -6.675781 38.328125 -3.894531 35.734375 -1.21875 C 33.148438 1.445312 30.410156 3.945312 27.515625 6.28125 C 23.859375 9.28125 19.984375 11.925781 15.890625 14.21875 C 9.617188 17.582031 3.050781 19.175781 -3.8125 19 C -10.289062 18.851562 -16.128906 17.101562 -21.328125 13.75 C -22.785156 12.8125 -24.082031 11.679688 -25.21875 10.359375 C -25.976562 9.421875 -26.578125 8.410156 -27.015625 7.328125 C -27.460938 6.242188 -27.6875 5.066406 -27.6875 3.796875 C -27.625 2.265625 -27.269531 0.847656 -26.625 -0.453125 C -25.988281 -1.753906 -25.109375 -2.9375 -23.984375 -4 C -22.429688 -5.507812 -20.722656 -6.785156 -18.859375 -7.828125 C -17.046875 -8.878906 -15.179688 -9.796875 -13.265625 -10.578125 C -11.347656 -11.367188 -9.410156 -12.070312 -7.453125 -12.6875 C -4.296875 -13.707031 -1.109375 -14.5625 2.109375 -15.25 C 5.335938 -15.945312 8.578125 -16.539062 11.828125 -17.03125 C 19.535156 -18.09375 27.257812 -18.800781 35 -19.15625 C 38.957031 -19.394531 42.898438 -19.515625 46.828125 -19.515625 C 47.910156 -19.484375 48.742188 -19.9375 49.328125 -20.875 C 50.367188 -22.34375 51.414062 -23.816406 52.46875 -25.296875 C 54.101562 -27.554688 55.710938 -29.851562 57.296875 -32.1875 C 64.640625 -43.15625 71.675781 -54.304688 78.40625 -65.640625 C 78.96875 -66.597656 79.519531 -67.570312 80.0625 -68.5625 C 80.320312 -69.0625 80.59375 -69.566406 80.875 -70.078125 C 81.207031 -70.734375 81.738281 -71.101562 82.46875 -71.1875 C 82.863281 -71.1875 83.15625 -71.070312 83.34375 -70.84375 C 83.53125 -70.613281 83.554688 -70.316406 83.421875 -69.953125 C 83.273438 -69.640625 83.113281 -69.34375 82.9375 -69.0625 C 81.84375 -67.113281 80.875 -65.132812 80.03125 -63.125 C 79.707031 -62.414062 79.390625 -61.722656 79.078125 -61.046875 C 76.109375 -54.609375 73.128906 -48.164062 70.140625 -41.71875 C 67.859375 -36.75 65.550781 -31.769531 63.21875 -26.78125 C 62.550781 -25.300781 61.890625 -23.828125 61.234375 -22.359375 C 61.097656 -22.054688 60.957031 -21.765625 60.8125 -21.484375 C 60.789062 -21.421875 60.765625 -21.347656 60.734375 -21.265625 C 60.648438 -21.054688 60.578125 -20.851562 60.515625 -20.65625 C 60.460938 -20.457031 60.476562 -20.265625 60.5625 -20.078125 C 60.757812 -19.929688 60.984375 -19.851562 61.234375 -19.84375 C 61.492188 -19.832031 61.734375 -19.828125 61.953125 -19.828125 C 62.128906 -19.847656 62.289062 -19.859375 62.4375 -19.859375 C 63.5 -19.835938 64.570312 -19.835938 65.65625 -19.859375 C 67.113281 -19.859375 68.582031 -19.847656 70.0625 -19.828125 C 78.070312 -19.679688 86.09375 -19.503906 94.125 -19.296875 C 96.757812 -19.242188 99.375 -19.132812 101.96875 -18.96875 C 102.195312 -18.945312 102.441406 -18.9375 102.703125 -18.9375 C 102.835938 -18.9375 102.988281 -18.9375 103.15625 -18.9375 C 103.488281 -18.9375 103.8125 -18.90625 104.125 -18.84375 C 104.445312 -18.789062 104.75 -18.679688 105.03125 -18.515625 C 105.082031 -18.472656 105.117188 -18.410156 105.140625 -18.328125 C 105.171875 -18.242188 105.171875 -18.175781 105.140625 -18.125 C 105.140625 -18.039062 105.101562 -17.960938 105.03125 -17.890625 C 104.96875 -17.816406 104.910156 -17.769531 104.859375 -17.75 C 104.628906 -17.65625 104.382812 -17.609375 104.125 -17.609375 Z M 46.703125 -17.390625 C 46.785156 -17.578125 46.789062 -17.738281 46.71875 -17.875 C 46.65625 -18.019531 46.539062 -18.09375 46.375 -18.09375 C 46.113281 -18.113281 45.84375 -18.113281 45.5625 -18.09375 C 45.414062 -18.09375 45.273438 -18.09375 45.140625 -18.09375 C 35.441406 -17.976562 25.738281 -17.304688 16.03125 -16.078125 C 12.3125 -15.628906 8.613281 -15.039062 4.9375 -14.3125 C 1.269531 -13.582031 -2.363281 -12.664062 -5.96875 -11.5625 C -7.894531 -10.96875 -9.796875 -10.285156 -11.671875 -9.515625 C -13.546875 -8.753906 -15.378906 -7.847656 -17.171875 -6.796875 C -19.023438 -5.753906 -20.71875 -4.484375 -22.25 -2.984375 C -24.03125 -1.148438 -25.035156 0.800781 -25.265625 2.875 C -25.492188 4.945312 -24.9375 6.945312 -23.59375 8.875 C -22.601562 10.226562 -21.421875 11.382812 -20.046875 12.34375 C -15.046875 15.90625 -9.082031 17.71875 -2.15625 17.78125 C -0.382812 17.78125 1.648438 17.550781 3.953125 17.09375 C 6.234375 16.613281 8.441406 15.914062 10.578125 15 C 12.710938 14.082031 14.78125 13 16.78125 11.75 C 21.726562 8.707031 26.304688 5.164062 30.515625 1.125 C 33.429688 -1.613281 36.175781 -4.492188 38.75 -7.515625 C 41.332031 -10.546875 43.835938 -13.628906 46.265625 -16.765625 C 46.410156 -16.992188 46.554688 -17.203125 46.703125 -17.390625 Z M 58.484375 -21.390625 C 60.347656 -25.617188 62.269531 -29.84375 64.25 -34.0625 C 64.332031 -34.289062 64.628906 -34.953125 65.140625 -36.046875 C 65.648438 -37.148438 66.234375 -38.429688 66.890625 -39.890625 C 67.554688 -41.347656 68.164062 -42.722656 68.71875 -44.015625 C 69.269531 -45.316406 69.65625 -46.289062 69.875 -46.9375 C 70.101562 -47.582031 70.035156 -47.644531 69.671875 -47.125 C 69.585938 -47.007812 69.519531 -46.894531 69.46875 -46.78125 C 69.15625 -46.320312 68.859375 -45.867188 68.578125 -45.421875 C 66.234375 -41.773438 63.867188 -38.132812 61.484375 -34.5 C 59.109375 -30.863281 56.648438 -27.28125 54.109375 -23.75 C 53.867188 -23.414062 53.617188 -23.0625 53.359375 -22.6875 C 52.867188 -22.019531 52.390625 -21.347656 51.921875 -20.671875 C 51.722656 -20.390625 51.664062 -20.15625 51.75 -19.96875 C 51.832031 -19.78125 52.03125 -19.6875 52.34375 -19.6875 C 52.851562 -19.6875 53.359375 -19.703125 53.859375 -19.734375 C 54.660156 -19.796875 55.453125 -19.828125 56.234375 -19.828125 C 56.835938 -19.796875 57.304688 -19.921875 57.640625 -20.203125 C 57.972656 -20.484375 58.253906 -20.878906 58.484375 -21.390625 Z M 58.484375 -21.390625 "/></g></g></g><g fill="#fafafa" fill-opacity="1"><g transform="translate(215.876591, 216.842242)"><g><path d="M 9.328125 -9.1875 C 9.742188 -9.613281 10.09375 -9.851562 10.375 -9.90625 C 10.664062 -9.957031 10.851562 -9.910156 10.9375 -9.765625 C 11.019531 -9.628906 10.960938 -9.4375 10.765625 -9.1875 C 9.640625 -7.820312 8.375 -6.644531 6.96875 -5.65625 C 5.570312 -4.675781 4.128906 -4.109375 2.640625 -3.953125 C 1.160156 -3.796875 0.269531 -4.601562 -0.03125 -6.375 C -0.269531 -8.132812 0.789062 -11.71875 3.15625 -17.125 C 5.519531 -22.53125 7.390625 -26.960938 8.765625 -30.421875 C 8.878906 -30.722656 9.050781 -30.992188 9.28125 -31.234375 C 9.59375 -31.535156 9.960938 -31.601562 10.390625 -31.4375 C 10.523438 -31.375 10.660156 -31.269531 10.796875 -31.125 C 10.941406 -30.988281 10.988281 -30.738281 10.9375 -30.375 C 4.863281 -15.96875 1.921875 -8.132812 2.109375 -6.875 C 2.304688 -5.613281 3.117188 -5.300781 4.546875 -5.9375 C 5.984375 -6.570312 7.085938 -7.21875 7.859375 -7.875 C 8.640625 -8.539062 9.128906 -8.976562 9.328125 -9.1875 Z M 9.328125 -9.1875 "/></g></g></g><g fill="#fafafa" fill-opacity="1"><g transform="translate(225.490383, 216.842242)"><g><path d="M 10.96875 -7.390625 C 10.226562 -6.660156 9.363281 -6.035156 8.375 -5.515625 C 7.382812 -4.992188 6.554688 -4.648438 5.890625 -4.484375 C 5.222656 -4.328125 4.535156 -4.238281 3.828125 -4.21875 C 2.703125 -4.164062 1.664062 -4.320312 0.71875 -4.6875 C -0.84375 -5.3125 -1.382812 -6.507812 -0.90625 -8.28125 C -0.457031 -9.8125 0.453125 -11.003906 1.828125 -11.859375 C 3.203125 -12.722656 4.625 -13.144531 6.09375 -13.125 C 6.09375 -13.125 6.101562 -13.125 6.125 -13.125 C 6.5 -13.144531 6.851562 -13.117188 7.1875 -13.046875 C 7.75 -12.835938 8.109375 -12.5 8.265625 -12.03125 C 8.421875 -11.570312 8.316406 -11.0625 7.953125 -10.5 C 7.128906 -9.25 6.015625 -8.554688 4.609375 -8.421875 C 3.671875 -8.328125 2.765625 -8.367188 1.890625 -8.546875 C 1.722656 -8.578125 1.570312 -8.535156 1.4375 -8.421875 C 1.3125 -8.304688 1.238281 -8.164062 1.21875 -8 C 0.957031 -6.894531 1.296875 -6.1875 2.234375 -5.875 C 3.390625 -5.476562 4.59375 -5.476562 5.84375 -5.875 C 7.28125 -6.320312 8.644531 -7.164062 9.9375 -8.40625 C 11.238281 -9.65625 11.988281 -10.238281 12.1875 -10.15625 C 12.382812 -10.070312 12.445312 -9.832031 12.375 -9.4375 C 12.1875 -8.8125 11.71875 -8.128906 10.96875 -7.390625 Z M 2.78125 -10.5 C 2.695312 -10.40625 2.640625 -10.300781 2.609375 -10.1875 C 2.578125 -10.082031 2.617188 -9.988281 2.734375 -9.90625 C 3.179688 -9.644531 3.664062 -9.550781 4.1875 -9.625 C 4.71875 -9.695312 5.164062 -9.894531 5.53125 -10.21875 C 5.90625 -10.539062 6.066406 -10.941406 6.015625 -11.421875 C 5.972656 -11.585938 5.878906 -11.691406 5.734375 -11.734375 C 5.597656 -11.785156 5.457031 -11.796875 5.3125 -11.765625 C 4.363281 -11.597656 3.519531 -11.175781 2.78125 -10.5 Z M 2.78125 -10.5 "/></g></g></g><g fill="#fafafa" fill-opacity="1"><g transform="translate(236.703257, 216.842242)"><g><path d="M 2.578125 -5.796875 C 2.441406 -5.941406 2.289062 -6.066406 2.125 -6.171875 C 2.039062 -6.234375 1.96875 -6.289062 1.90625 -6.34375 C 1.457031 -6.175781 1.078125 -5.925781 0.765625 -5.59375 C 0.597656 -5.382812 0.398438 -5.207031 0.171875 -5.0625 C -0.160156 -4.8125 -0.523438 -4.703125 -0.921875 -4.734375 C -1.148438 -4.765625 -1.335938 -4.875 -1.484375 -5.0625 C -1.503906 -5.09375 -1.515625 -5.15625 -1.515625 -5.25 C -1.515625 -5.351562 -1.503906 -5.429688 -1.484375 -5.484375 C -1.421875 -5.554688 -1.363281 -5.613281 -1.3125 -5.65625 C -0.976562 -6.113281 -0.613281 -6.523438 -0.21875 -6.890625 C 0.207031 -7.296875 0.476562 -7.707031 0.59375 -8.125 C 0.707031 -8.550781 0.625 -9.046875 0.34375 -9.609375 C 0 -10.421875 -0.269531 -11.28125 -0.46875 -12.1875 C -0.519531 -12.445312 -0.578125 -12.71875 -0.640625 -13 C -0.753906 -13.382812 -0.632812 -13.71875 -0.28125 -14 C -0.03125 -14.1875 0.238281 -14.242188 0.53125 -14.171875 C 0.832031 -14.097656 1.039062 -13.929688 1.15625 -13.671875 C 1.320312 -13.160156 1.488281 -12.65625 1.65625 -12.15625 C 1.820312 -11.695312 1.976562 -11.226562 2.125 -10.75 C 2.351562 -10.1875 2.71875 -10.128906 3.21875 -10.578125 C 3.726562 -11.066406 4.253906 -11.5625 4.796875 -12.0625 C 5.359375 -12.601562 5.921875 -13.140625 6.484375 -13.671875 C 6.941406 -14.097656 7.425781 -14.476562 7.9375 -14.8125 C 8.25 -15.019531 8.546875 -15.007812 8.828125 -14.78125 C 8.960938 -14.613281 9.015625 -14.460938 8.984375 -14.328125 C 8.953125 -14.203125 8.882812 -14.082031 8.78125 -13.96875 C 7.59375 -12.664062 6.421875 -11.378906 5.265625 -10.109375 C 4.972656 -9.828125 4.6875 -9.546875 4.40625 -9.265625 C 3.875 -8.816406 3.578125 -8.421875 3.515625 -8.078125 C 3.453125 -7.742188 3.765625 -7.234375 4.453125 -6.546875 C 4.828125 -6.210938 5.40625 -6.179688 6.1875 -6.453125 C 6.976562 -6.722656 7.828125 -7.128906 8.734375 -7.671875 C 9.640625 -8.222656 10.457031 -8.753906 11.1875 -9.265625 C 11.707031 -9.640625 12.117188 -9.910156 12.421875 -10.078125 C 13.179688 -10.472656 13.625 -10.515625 13.75 -10.203125 C 13.882812 -9.890625 13.679688 -9.503906 13.140625 -9.046875 C 12.859375 -8.859375 12.585938 -8.660156 12.328125 -8.453125 C 11.171875 -7.628906 10.015625 -6.816406 8.859375 -6.015625 C 8.265625 -5.609375 7.628906 -5.28125 6.953125 -5.03125 C 6.160156 -4.71875 5.394531 -4.609375 4.65625 -4.703125 C 3.925781 -4.804688 3.234375 -5.171875 2.578125 -5.796875 Z M 2.578125 -5.796875 "/></g></g></g><g fill="#fafafa" fill-opacity="1"><g transform="translate(248.917993, 216.842242)"><g><path d="M 7.65625 -8.109375 C 6.96875 -7.296875 6.15625 -6.550781 5.21875 -5.875 C 4.28125 -5.195312 3.21875 -4.738281 2.03125 -4.5 C 0.851562 -4.257812 -0.0546875 -4.34375 -0.703125 -4.75 C -1.359375 -5.164062 -1.488281 -6.082031 -1.09375 -7.5 C -0.582031 -8.957031 0.117188 -10.347656 1.015625 -11.671875 C 1.222656 -11.953125 1.519531 -12.148438 1.90625 -12.265625 C 2.1875 -12.335938 2.429688 -12.289062 2.640625 -12.125 C 2.859375 -11.96875 2.941406 -11.765625 2.890625 -11.515625 C 2.691406 -11.054688 2.476562 -10.59375 2.25 -10.125 C 2.019531 -9.664062 1.867188 -9.367188 1.796875 -9.234375 C 1.347656 -8.410156 1.03125 -7.546875 0.84375 -6.640625 C 0.84375 -6.128906 1.53125 -6.097656 2.90625 -6.546875 C 4.28125 -6.992188 5.613281 -7.816406 6.90625 -9.015625 C 8.207031 -10.222656 8.828125 -10.578125 8.765625 -10.078125 C 8.710938 -9.585938 8.34375 -8.929688 7.65625 -8.109375 Z M 4.296875 -14.5625 C 4.234375 -14.507812 4.101562 -14.445312 3.90625 -14.375 C 3.707031 -14.3125 3.492188 -14.257812 3.265625 -14.21875 C 3.035156 -14.1875 2.859375 -14.222656 2.734375 -14.328125 C 2.609375 -14.429688 2.601562 -14.640625 2.71875 -14.953125 C 2.925781 -15.492188 3.140625 -15.960938 3.359375 -16.359375 C 3.585938 -16.765625 3.878906 -17.210938 4.234375 -17.703125 C 4.460938 -17.921875 4.710938 -18.039062 4.984375 -18.0625 C 5.253906 -18.082031 5.476562 -18.007812 5.65625 -17.84375 C 5.84375 -17.6875 5.894531 -17.46875 5.8125 -17.1875 C 5.53125 -16.164062 5.023438 -15.289062 4.296875 -14.5625 Z M 4.296875 -14.5625 "/></g></g></g><g fill="#fafafa" fill-opacity="1"><g transform="translate(256.431772, 216.842242)"><g><path d="M 9.328125 -9.765625 C 7.296875 -9.003906 5.832031 -8.390625 4.9375 -7.921875 C 4.28125 -7.597656 3.898438 -7.328125 3.796875 -7.109375 C 3.703125 -6.898438 3.78125 -6.515625 4.03125 -5.953125 C 4.03125 -5.929688 4.046875 -5.894531 4.078125 -5.84375 C 4.367188 -5.15625 4.535156 -4.445312 4.578125 -3.71875 C 4.671875 -2.238281 3.414062 -1.203125 0.8125 -0.609375 C -1.78125 -0.0234375 -3.515625 -0.0078125 -4.390625 -0.5625 C -5.273438 -1.113281 -5.546875 -1.8125 -5.203125 -2.65625 C -4.867188 -3.507812 -3.988281 -4.367188 -2.5625 -5.234375 C -1.132812 -6.109375 -0.179688 -6.738281 0.296875 -7.125 C 0.773438 -7.507812 0.921875 -7.941406 0.734375 -8.421875 C 0.671875 -8.585938 0.597656 -8.753906 0.515625 -8.921875 C 0.347656 -9.316406 0.175781 -9.726562 0 -10.15625 C -0.332031 -10.925781 -0.472656 -11.679688 -0.421875 -12.421875 C -0.378906 -13.171875 -0.109375 -13.796875 0.390625 -14.296875 C 0.898438 -14.804688 1.6875 -15.082031 2.75 -15.125 C 3.351562 -15.144531 3.890625 -15.0625 4.359375 -14.875 C 4.835938 -14.695312 5.222656 -14.351562 5.515625 -13.84375 C 5.742188 -13.5 5.671875 -13.1875 5.296875 -12.90625 C 5.054688 -12.71875 4.796875 -12.691406 4.515625 -12.828125 C 4.328125 -12.910156 4.148438 -13.019531 3.984375 -13.15625 C 3.984375 -13.195312 3.984375 -13.21875 3.984375 -13.21875 C 3.910156 -13.269531 3.84375 -13.320312 3.78125 -13.375 C 3.695312 -13.488281 3.613281 -13.578125 3.53125 -13.640625 C 3.195312 -13.878906 2.859375 -13.953125 2.515625 -13.859375 C 2.171875 -13.765625 1.914062 -13.503906 1.75 -13.078125 C 1.632812 -12.742188 1.578125 -12.40625 1.578125 -12.0625 C 1.609375 -11.632812 1.707031 -11.222656 1.875 -10.828125 C 1.988281 -10.578125 2.085938 -10.351562 2.171875 -10.15625 C 2.390625 -9.582031 2.566406 -9.191406 2.703125 -8.984375 C 2.847656 -8.773438 3.019531 -8.6875 3.21875 -8.71875 C 3.425781 -8.75 5.25 -9.398438 8.6875 -10.671875 C 9.4375 -10.910156 9.648438 -10.609375 9.328125 -9.765625 Z M 0.984375 -2.40625 C 1.878906 -2.71875 2.257812 -3.320312 2.125 -4.21875 C 2.125 -4.28125 2.109375 -4.351562 2.078125 -4.4375 C 2.023438 -4.914062 1.921875 -5.285156 1.765625 -5.546875 C 1.617188 -5.816406 1.273438 -5.8125 0.734375 -5.53125 C -0.597656 -4.769531 -1.832031 -3.882812 -2.96875 -2.875 C -3.039062 -2.78125 -3.109375 -2.695312 -3.171875 -2.625 C -3.171875 -2.625 -3.1875 -2.601562 -3.21875 -2.5625 C -3.289062 -2.457031 -3.300781 -2.335938 -3.25 -2.203125 C -3.195312 -2.078125 -3.082031 -2.015625 -2.90625 -2.015625 C -1.582031 -1.816406 -0.285156 -1.945312 0.984375 -2.40625 Z M 0.984375 -2.40625 "/></g></g></g><g fill="#fafafa" fill-opacity="1"><g transform="translate(264.966683, 216.842242)"><g/></g></g><g fill="#fafafa" fill-opacity="1"><g transform="translate(279.531876, 216.842242)"><g><path d="M 99.515625 -55.59375 C 99.847656 -55.3125 100.148438 -54.992188 100.421875 -54.640625 C 100.691406 -54.285156 100.863281 -53.863281 100.9375 -53.375 C 101.03125 -52.84375 100.835938 -52.429688 100.359375 -52.140625 C 100.078125 -52.003906 99.800781 -51.988281 99.53125 -52.09375 C 99.269531 -52.195312 99.078125 -52.398438 98.953125 -52.703125 C 98.648438 -53.554688 98.1875 -54.226562 97.5625 -54.71875 C 96.9375 -55.21875 96.257812 -55.648438 95.53125 -56.015625 C 93.914062 -56.867188 92.242188 -57.5625 90.515625 -58.09375 C 88.796875 -58.625 87.066406 -59.085938 85.328125 -59.484375 C 82.410156 -60.097656 78.523438 -60.5 73.671875 -60.6875 C 68.828125 -60.875 63.429688 -60.800781 57.484375 -60.46875 C 51.535156 -60.144531 45.445312 -59.507812 39.21875 -58.5625 C 32.988281 -57.625 27.023438 -56.328125 21.328125 -54.671875 C 15.640625 -53.023438 10.640625 -50.972656 6.328125 -48.515625 C 2.015625 -46.054688 -1.195312 -43.15625 -3.3125 -39.8125 C -5.082031 -36.914062 -5.4375 -33.851562 -4.375 -30.625 C -3.601562 -28.414062 -2.5 -26.40625 -1.0625 -24.59375 C 1.082031 -21.882812 3.457031 -19.398438 6.0625 -17.140625 C 8.257812 -15.140625 10.476562 -13.140625 12.71875 -11.140625 C 14.882812 -9.210938 17.0625 -7.257812 19.25 -5.28125 C 21.675781 -3.039062 24.0625 -0.78125 26.40625 1.5 C 26.625 1.71875 26.847656 1.929688 27.078125 2.140625 C 28.359375 3.316406 29.476562 4.625 30.4375 6.0625 C 31.425781 7.707031 31.613281 8.984375 31 9.890625 C 30.394531 10.796875 29.238281 11.410156 27.53125 11.734375 C 25.820312 12.054688 23.835938 12.15625 21.578125 12.03125 C 19.316406 11.90625 17.039062 11.617188 14.75 11.171875 C 12.457031 10.734375 10.421875 10.207031 8.640625 9.59375 C 6.859375 8.976562 5.601562 8.34375 4.875 7.6875 C 3.40625 6.320312 3.304688 4.882812 4.578125 3.375 C 5.953125 1.820312 7.628906 0.691406 9.609375 -0.015625 C 12.472656 -1.117188 15.367188 -1.207031 18.296875 -0.28125 C 18.867188 -0.0820312 19.410156 0.179688 19.921875 0.515625 C 19.972656 0.546875 20.015625 0.578125 20.046875 0.609375 C 20.191406 0.691406 20.289062 0.804688 20.34375 0.953125 C 20.394531 1.109375 20.367188 1.28125 20.265625 1.46875 C 20.035156 1.75 19.753906 1.832031 19.421875 1.71875 C 19.097656 1.601562 18.796875 1.460938 18.515625 1.296875 C 16.484375 0.273438 14.394531 0.0625 12.25 0.65625 C 10.101562 1.25 8.289062 2.414062 6.8125 4.15625 C 6.175781 5.007812 6.144531 5.753906 6.71875 6.390625 C 7.300781 7.023438 8.1875 7.5625 9.375 8 C 10.5625 8.445312 11.753906 8.796875 12.953125 9.046875 C 14.148438 9.296875 15.046875 9.46875 15.640625 9.5625 C 15.753906 9.5625 15.835938 9.570312 15.890625 9.59375 C 16.003906 9.59375 16.144531 9.601562 16.3125 9.625 C 17.070312 9.789062 18.109375 9.96875 19.421875 10.15625 C 20.742188 10.34375 22.101562 10.472656 23.5 10.546875 C 24.90625 10.617188 26.109375 10.523438 27.109375 10.265625 C 28.109375 10.003906 28.671875 9.507812 28.796875 8.78125 C 28.929688 8.050781 28.375 6.96875 27.125 5.53125 C 25.800781 4 24.398438 2.515625 22.921875 1.078125 C 19.253906 -2.472656 15.484375 -5.921875 11.609375 -9.265625 C 10.222656 -10.515625 8.835938 -11.757812 7.453125 -13 C 5.140625 -15.082031 2.867188 -17.21875 0.640625 -19.40625 C -1.429688 -21.40625 -3.253906 -23.601562 -4.828125 -26 C -5.960938 -27.75 -6.753906 -29.632812 -7.203125 -31.65625 C -7.878906 -34.957031 -7.269531 -38.003906 -5.375 -40.796875 C -3.289062 -43.929688 -0.273438 -46.707031 3.671875 -49.125 C 7.628906 -51.539062 12.210938 -53.601562 17.421875 -55.3125 C 22.640625 -57.019531 28.195312 -58.398438 34.09375 -59.453125 C 39.988281 -60.515625 45.941406 -61.265625 51.953125 -61.703125 C 57.972656 -62.148438 63.742188 -62.300781 69.265625 -62.15625 C 74.796875 -62.019531 79.796875 -61.601562 84.265625 -60.90625 C 88.742188 -60.21875 92.414062 -59.265625 95.28125 -58.046875 C 96.789062 -57.453125 98.203125 -56.632812 99.515625 -55.59375 Z M 99.515625 -55.59375 "/></g></g></g><g fill="#fafafa" fill-opacity="1"><g transform="translate(307.930135, 216.842242)"><g><path d="M 13.96875 -9.8125 C 14.269531 -9.644531 14.296875 -9.222656 14.046875 -8.546875 C 13.671875 -8.066406 13.269531 -7.613281 12.84375 -7.1875 C 12.425781 -6.757812 11.96875 -6.378906 11.46875 -6.046875 C 11.425781 -6.046875 11.40625 -6.035156 11.40625 -6.015625 C 11.070312 -5.773438 10.71875 -5.570312 10.34375 -5.40625 C 7.269531 -4.300781 5.703125 -4.953125 5.640625 -7.359375 C 4.398438 -6.273438 3.566406 -5.613281 3.140625 -5.375 C 2.128906 -4.769531 1.03125 -4.5 -0.15625 -4.5625 C -1.03125 -4.613281 -1.625 -4.878906 -1.9375 -5.359375 C -2.25 -5.847656 -2.21875 -6.503906 -1.84375 -7.328125 C -1.28125 -8.617188 -0.476562 -9.769531 0.5625 -10.78125 C 1.78125 -11.914062 3.132812 -12.820312 4.625 -13.5 C 5.414062 -13.894531 6.25 -14.050781 7.125 -13.96875 C 8 -13.914062 8.523438 -13.421875 8.703125 -12.484375 C 8.785156 -12.203125 8.71875 -11.953125 8.5 -11.734375 C 8.21875 -11.472656 7.890625 -11.414062 7.515625 -11.5625 C 7.484375 -11.5625 7.445312 -11.566406 7.40625 -11.578125 C 7.363281 -11.585938 7.328125 -11.609375 7.296875 -11.640625 C 6.929688 -12.148438 6.554688 -12.363281 6.171875 -12.28125 C 5.796875 -12.195312 5.394531 -12.023438 4.96875 -11.765625 C 2.988281 -10.609375 1.519531 -9 0.5625 -6.9375 C 0.507812 -6.84375 0.472656 -6.738281 0.453125 -6.625 C 0.441406 -6.519531 0.476562 -6.4375 0.5625 -6.375 C 0.789062 -6.300781 1.046875 -6.316406 1.328125 -6.421875 C 1.609375 -6.535156 1.890625 -6.695312 2.171875 -6.90625 C 2.453125 -7.113281 2.691406 -7.289062 2.890625 -7.4375 C 2.910156 -7.476562 2.921875 -7.5 2.921875 -7.5 C 3.859375 -8.28125 4.78125 -9.082031 5.6875 -9.90625 C 6.082031 -10.320312 6.578125 -10.554688 7.171875 -10.609375 C 8.015625 -10.609375 8.363281 -10.234375 8.21875 -9.484375 C 8.144531 -9.191406 8.0625 -8.90625 7.96875 -8.625 C 7.632812 -7.40625 7.625 -6.691406 7.9375 -6.484375 C 8.25 -6.273438 8.722656 -6.273438 9.359375 -6.484375 C 9.992188 -6.691406 10.628906 -7.09375 11.265625 -7.6875 C 11.898438 -8.289062 12.4375 -8.835938 12.875 -9.328125 C 13.3125 -9.828125 13.675781 -9.988281 13.96875 -9.8125 Z M 13.96875 -9.8125 "/></g></g></g><g fill="#fafafa" fill-opacity="1"><g transform="translate(320.703572, 216.842242)"><g><path d="M 9.328125 -9.1875 C 9.742188 -9.613281 10.09375 -9.851562 10.375 -9.90625 C 10.664062 -9.957031 10.851562 -9.910156 10.9375 -9.765625 C 11.019531 -9.628906 10.960938 -9.4375 10.765625 -9.1875 C 9.640625 -7.820312 8.375 -6.644531 6.96875 -5.65625 C 5.570312 -4.675781 4.128906 -4.109375 2.640625 -3.953125 C 1.160156 -3.796875 0.269531 -4.601562 -0.03125 -6.375 C -0.269531 -8.132812 0.789062 -11.71875 3.15625 -17.125 C 5.519531 -22.53125 7.390625 -26.960938 8.765625 -30.421875 C 8.878906 -30.722656 9.050781 -30.992188 9.28125 -31.234375 C 9.59375 -31.535156 9.960938 -31.601562 10.390625 -31.4375 C 10.523438 -31.375 10.660156 -31.269531 10.796875 -31.125 C 10.941406 -30.988281 10.988281 -30.738281 10.9375 -30.375 C 4.863281 -15.96875 1.921875 -8.132812 2.109375 -6.875 C 2.304688 -5.613281 3.117188 -5.300781 4.546875 -5.9375 C 5.984375 -6.570312 7.085938 -7.21875 7.859375 -7.875 C 8.640625 -8.539062 9.128906 -8.976562 9.328125 -9.1875 Z M 9.328125 -9.1875 "/></g></g></g><g fill="#fafafa" fill-opacity="1"><g transform="translate(330.317387, 216.842242)"><g><path d="M 10.96875 -7.390625 C 10.226562 -6.660156 9.363281 -6.035156 8.375 -5.515625 C 7.382812 -4.992188 6.554688 -4.648438 5.890625 -4.484375 C 5.222656 -4.328125 4.535156 -4.238281 3.828125 -4.21875 C 2.703125 -4.164062 1.664062 -4.320312 0.71875 -4.6875 C -0.84375 -5.3125 -1.382812 -6.507812 -0.90625 -8.28125 C -0.457031 -9.8125 0.453125 -11.003906 1.828125 -11.859375 C 3.203125 -12.722656 4.625 -13.144531 6.09375 -13.125 C 6.09375 -13.125 6.101562 -13.125 6.125 -13.125 C 6.5 -13.144531 6.851562 -13.117188 7.1875 -13.046875 C 7.75 -12.835938 8.109375 -12.5 8.265625 -12.03125 C 8.421875 -11.570312 8.316406 -11.0625 7.953125 -10.5 C 7.128906 -9.25 6.015625 -8.554688 4.609375 -8.421875 C 3.671875 -8.328125 2.765625 -8.367188 1.890625 -8.546875 C 1.722656 -8.578125 1.570312 -8.535156 1.4375 -8.421875 C 1.3125 -8.304688 1.238281 -8.164062 1.21875 -8 C 0.957031 -6.894531 1.296875 -6.1875 2.234375 -5.875 C 3.390625 -5.476562 4.59375 -5.476562 5.84375 -5.875 C 7.28125 -6.320312 8.644531 -7.164062 9.9375 -8.40625 C 11.238281 -9.65625 11.988281 -10.238281 12.1875 -10.15625 C 12.382812 -10.070312 12.445312 -9.832031 12.375 -9.4375 C 12.1875 -8.8125 11.71875 -8.128906 10.96875 -7.390625 Z M 2.78125 -10.5 C 2.695312 -10.40625 2.640625 -10.300781 2.609375 -10.1875 C 2.578125 -10.082031 2.617188 -9.988281 2.734375 -9.90625 C 3.179688 -9.644531 3.664062 -9.550781 4.1875 -9.625 C 4.71875 -9.695312 5.164062 -9.894531 5.53125 -10.21875 C 5.90625 -10.539062 6.066406 -10.941406 6.015625 -11.421875 C 5.972656 -11.585938 5.878906 -11.691406 5.734375 -11.734375 C 5.597656 -11.785156 5.457031 -11.796875 5.3125 -11.765625 C 4.363281 -11.597656 3.519531 -11.175781 2.78125 -10.5 Z M 2.78125 -10.5 "/></g></g></g><g fill="#fafafa" fill-opacity="1"><g transform="translate(341.530261, 216.842242)"><g><path d="M 9.328125 -9.765625 C 7.296875 -9.003906 5.832031 -8.390625 4.9375 -7.921875 C 4.28125 -7.597656 3.898438 -7.328125 3.796875 -7.109375 C 3.703125 -6.898438 3.78125 -6.515625 4.03125 -5.953125 C 4.03125 -5.929688 4.046875 -5.894531 4.078125 -5.84375 C 4.367188 -5.15625 4.535156 -4.445312 4.578125 -3.71875 C 4.671875 -2.238281 3.414062 -1.203125 0.8125 -0.609375 C -1.78125 -0.0234375 -3.515625 -0.0078125 -4.390625 -0.5625 C -5.273438 -1.113281 -5.546875 -1.8125 -5.203125 -2.65625 C -4.867188 -3.507812 -3.988281 -4.367188 -2.5625 -5.234375 C -1.132812 -6.109375 -0.179688 -6.738281 0.296875 -7.125 C 0.773438 -7.507812 0.921875 -7.941406 0.734375 -8.421875 C 0.671875 -8.585938 0.597656 -8.753906 0.515625 -8.921875 C 0.347656 -9.316406 0.175781 -9.726562 0 -10.15625 C -0.332031 -10.925781 -0.472656 -11.679688 -0.421875 -12.421875 C -0.378906 -13.171875 -0.109375 -13.796875 0.390625 -14.296875 C 0.898438 -14.804688 1.6875 -15.082031 2.75 -15.125 C 3.351562 -15.144531 3.890625 -15.0625 4.359375 -14.875 C 4.835938 -14.695312 5.222656 -14.351562 5.515625 -13.84375 C 5.742188 -13.5 5.671875 -13.1875 5.296875 -12.90625 C 5.054688 -12.71875 4.796875 -12.691406 4.515625 -12.828125 C 4.328125 -12.910156 4.148438 -13.019531 3.984375 -13.15625 C 3.984375 -13.195312 3.984375 -13.21875 3.984375 -13.21875 C 3.910156 -13.269531 3.84375 -13.320312 3.78125 -13.375 C 3.695312 -13.488281 3.613281 -13.578125 3.53125 -13.640625 C 3.195312 -13.878906 2.859375 -13.953125 2.515625 -13.859375 C 2.171875 -13.765625 1.914062 -13.503906 1.75 -13.078125 C 1.632812 -12.742188 1.578125 -12.40625 1.578125 -12.0625 C 1.609375 -11.632812 1.707031 -11.222656 1.875 -10.828125 C 1.988281 -10.578125 2.085938 -10.351562 2.171875 -10.15625 C 2.390625 -9.582031 2.566406 -9.191406 2.703125 -8.984375 C 2.847656 -8.773438 3.019531 -8.6875 3.21875 -8.71875 C 3.425781 -8.75 5.25 -9.398438 8.6875 -10.671875 C 9.4375 -10.910156 9.648438 -10.609375 9.328125 -9.765625 Z M 0.984375 -2.40625 C 1.878906 -2.71875 2.257812 -3.320312 2.125 -4.21875 C 2.125 -4.28125 2.109375 -4.351562 2.078125 -4.4375 C 2.023438 -4.914062 1.921875 -5.285156 1.765625 -5.546875 C 1.617188 -5.816406 1.273438 -5.8125 0.734375 -5.53125 C -0.597656 -4.769531 -1.832031 -3.882812 -2.96875 -2.875 C -3.039062 -2.78125 -3.109375 -2.695312 -3.171875 -2.625 C -3.171875 -2.625 -3.1875 -2.601562 -3.21875 -2.5625 C -3.289062 -2.457031 -3.300781 -2.335938 -3.25 -2.203125 C -3.195312 -2.078125 -3.082031 -2.015625 -2.90625 -2.015625 C -1.582031 -1.816406 -0.285156 -1.945312 0.984375 -2.40625 Z M 0.984375 -2.40625 "/></g></g></g></svg>